<svg id="Layer_1" data-name="Layer 1" xmlns="http://www.w3.org/2000/svg" viewBox="0 0 24 18"><title>Shuffle</title><path d="M4.7,6.82l0.4,0.4L7.22,5.1l-0.4-.4a7.45,7.45,0,0,0-5.3-2.2H0v3H1.51A4.47,4.47,0,0,1,4.7,6.82ZM18,12.5H16.49a4.47,4.47,0,0,1-3.18-1.32l-0.39-.39-2.12,2.12,0.39,0.39a7.45,7.45,0,0,0,5.3,2.2H18V18l6-4-6-4v2.5Zm-1.51-7H18V8l6-4L18,0V2.5H16.49a7.45,7.45,0,0,0-5.3,2.2L4.7,11.18A4.47,4.47,0,0,1,1.51,12.5H0v3H1.51a7.45,7.45,0,0,0,5.3-2.2L13.3,6.82A4.47,4.47,0,0,1,16.49,5.5Z"/></svg>